Coordinates
version=1
nRows=7
nColumns=40
inDegrees=yes

Units are S.I. units (second, meters, Newtons, ...)
Angles are in degrees.

endheader
time	pelvis_tilt	pelvis_list	pelvis_rotation	pelvis_tx	pelvis_ty	pelvis_tz	hip_flexion_r	hip_adduction_r	hip_rotation_r	knee_angle_r	knee_angle_r_beta	ankle_angle_r	subtalar_angle_r	mtp_angle_r	hip_flexion_l	hip_adduction_l	hip_rotation_l	knee_angle_l	knee_angle_l_beta	ankle_angle_l	subtalar_angle_l	mtp_angle_l	lumbar_extension	lumbar_bending	lumbar_rotation	arm_flex_r	arm_add_r	arm_rot_r	elbow_flex_r	pro_sup_r	wrist_flex_r	wrist_dev_r	arm_flex_l	arm_add_l	arm_rot_l	elbow_flex_l	pro_sup_l	wrist_flex_l	wrist_dev_l
      4.82000000	     -4.70002901	     -5.15743655	      1.64693046	      0.91516383	      0.93295689	      0.52246916	     11.29035663	      5.14156173	    -15.39985224	     12.04906229	     12.04906229	      8.22075995	      4.13535567	     -3.14452352	     38.01048847	    -12.39039526	      2.22526649	     61.29321847	     61.29321847	      5.60796291	    -18.85808905	     14.63426166	    -10.97651672	      5.93308807	      3.54386280	     19.40823406	    -19.32929881	     -6.15688505	     75.21469502	     45.67160892	      0.00000000	      0.00000000	      0.93229614	     -7.16285981	     -9.67178425	     27.96880406	     45.91885879	      0.00000000	      0.00000000
      4.83235714	     -4.90615673	     -5.09257666	      1.83370793	      0.91347041	      0.93282965	      0.52293873	     10.98487215	      5.13208019	    -15.47087529	     11.87658918	     11.87658918	      8.49111801	      4.16268303	     -3.24245474	     38.90954505	    -12.09836238	      2.06111948	     58.32548293	     58.32548293	      6.22358013	    -18.84588507	     14.74654957	    -10.83181418	      5.92192058	      3.76057581	     21.03058514	    -19.51920987	     -6.36101202	     76.36647806	     45.64557801	      0.00000000	      0.00000000	      0.25487027	     -7.07046790	     -9.64103588	     27.66677619	     45.90549283	      0.00000000	      0.00000000
      4.84471429	     -4.99586256	     -4.99407091	      2.05071501	      0.91191121	      0.93290917	      0.52334851	     10.46937620	      5.10306960	    -15.59442622	     11.54496501	     11.54496501	      8.73588506	      4.28667486	     -3.31072229	     39.38620203	    -11.69696926	      1.93669268	     54.93657706	     54.93657706	      6.65757747	    -18.81054699	     14.80339918	    -10.85835768	      5.89423781	      3.58123821	     22.62401658	    -19.24292290	     -6.43506904	     78.34225537	     45.58711293	      0.00000000	      0.00000000	     -0.64121874	     -7.11834279	     -9.58453313	     27.36398196	     45.88589315	      0.00000000	      0.00000000
      4.85707143	     -5.20029884	     -5.22762355	      2.24655528	      0.91037843	      0.93243289	      0.52385085	     10.25390865	      5.39829806	    -15.71229000	     11.52062827	     11.52062827	      9.05392144	      4.23477230	     -3.46296256	     39.96201671	    -11.58758726	      2.07505785	     51.54124222	     51.54124222	      7.27904858	    -18.34680897	     14.92678648	    -10.60253543	      6.25576918	      4.07206581	     23.89642447	    -19.52897890	     -6.60348713	     79.07903554	     45.57347369	      0.00000000	      0.00000000	     -1.25518835	     -7.03430292	     -9.57762786	     27.22274217	     45.87451517	      0.00000000	      0.00000000
      4.86942857	     -5.23067578	     -4.91814079	      2.44875244	      0.90894959	      0.93272709	      0.52386406	      9.53746537	      5.13632633	    -15.94051590	     10.93698961	     10.93698961	      9.21296891	      4.75021593	     -3.46534485	     39.79513452	    -10.81836647	      2.01191349	     47.49051675	     47.49051675	      7.14413861	    -18.36737578	     14.57840857	    -10.83702837	      6.03691595	      3.53012265	     25.60203452	    -19.08328746	     -6.59821933	     82.46082529	     45.46715664	      0.00000000	      0.00000000	     -2.38029038	     -7.01587203	     -9.37082706	     27.29486012	     45.82574690	      0.00000000	      0.00000000
      4.88178571	     -5.34367979	     -4.89497463	      2.62136924	      0.90765102	      0.93250680	      0.52396303	      9.10012624	      5.12086740	    -16.31906827	     10.72232360	     10.72232360	      9.53517619	      5.34457375	     -3.55249139	     39.67707250	    -10.36543712	      2.13090332	     43.46698074	     43.46698074	      6.83199343	    -17.95905720	     13.21719458	    -10.84194795	      6.13508420	      3.85716371	     26.51869010	    -19.32044702	     -6.76043287	     85.22051565	     45.38409563	      0.00000000	      0.00000000	     -3.27086076	     -7.02167672	     -8.81689137	     27.97719790	     45.73062625	      0.00000000	      0.00000000
      4.89414286	     -5.42104929	     -4.82586751	      2.74002098	      0.90642085	      0.93235294	      0.52403398	      8.66410765	      5.08551965	    -16.36351019	     10.57249926	     10.57249926	      9.82686480	      5.44609838	     -3.62675606	     39.41439656	     -9.90360187	      2.23734801	     39.51131012	     39.51131012	      7.06736602	    -17.08546276	     13.29389796	    -10.80457810	      6.14909607	      4.06565154	     27.85821270	    -19.26950794	     -6.91310565	     86.28021090	     45.36009091	      0.00000000	      0.00000000	     -3.85988046	     -6.98337187	     -8.61468516	     27.84753357	     45.69242407	      0.00000000	      0.00000000
